<?xml version="1.0" standalone="no"?>
<!DOCTYPE svg PUBLIC "-//W3C//DTD SVG 20010904//EN"
 "http://www.w3.org/TR/2001/REC-SVG-20010904/DTD/svg10.dtd">
<svg version="1.0" xmlns="http://www.w3.org/2000/svg"
 width="800.000000pt" height="800.000000pt" viewBox="0 0 800.000000 800.000000"
 preserveAspectRatio="xMidYMid meet">
<metadata>
Created by potrace 1.14, written by Peter Selinger 2001-2017
</metadata>
<g transform="translate(0.000000,800.000000) scale(0.100000,-0.100000)"
fill="#000000" stroke="none">
<path d="M3818 7421 l-33 -29 -5 -794 -5 -793 -1531 -2310 c-842 -1270 -1576
-2379 -1632 -2463 -92 -138 -102 -158 -102 -198 0 -37 6 -51 29 -75 l29 -29
642 0 642 0 29 29 c24 25 29 37 29 78 0 26 -6 55 -13 63 -37 46 -22 45 -558
50 l-508 5 1530 2310 c842 1271 1534 2310 1540 2310 5 0 697 -1039 1539 -2310
l1529 -2310 -817 -3 c-749 -2 -818 -1 -829 14 -7 9 -310 559 -674 1221 -424
772 -671 1210 -686 1220 -30 20 -95 20 -125 1 -14 -10 -290 -500 -716 -1275
-764 -1390 -725 -1311 -663 -1374 l29 -29 2372 0 2372 0 29 29 c23 24 29 38
29 74 0 52 199 -254 -1844 2831 -757 1143 -1375 2080 -1374 2081 2 1 485 165
1073 364 805 273 1076 369 1095 387 20 20 25 34 25 74 0 40 -5 55 -25 74 -19
20 -289 115 -1175 416 -632 214 -1164 390 -1182 390 -22 0 -43 -10 -65 -29z
m1089 -543 c490 -167 889 -306 885 -309 -9 -8 -210 -78 -238 -83 -11 -2 -361
-120 -778 -261 -416 -142 -759 -256 -760 -254 -6 6 -12 1209 -6 1209 3 0 406
-136 897 -302z m-417 -4868 l579 -1055 -584 -3 c-322 -1 -848 -1 -1169 0
l-585 3 582 1058 c320 581 585 1056 589 1055 4 -2 269 -478 588 -1058z"/>
</g>
</svg>
